<svg id="svg2" xmlns="http://www.w3.org/2000/svg" width="232.23907" height="396.668" viewBox="0 0 232.23907 396.668">
  <path id="path3652" d="M3.33313,309.14841c1.58929-2.38019,1.71045-5.24921-.63092-7.20478a7.15086,7.15086,0,0,0,.63092,7.20478" style="fill: none;stroke: #c7d7d9;stroke-linecap: round;stroke-linejoin: round;stroke-width: 0.5px"/>
  <path id="path3654" d="M8.39478,288.24625c-1.283,2.11132-.96,4.60754-1.60132,6.89276,6.38635-7.32862,15.15454-9.48981,20.86877-17.835,2.12775-3.10157,19.68451-13.64112,13.71655-19.00354,3.60413,1.03723,1.21235-1.56232,1.51691-3.7605.37262-2.67871,4.71271-2.88519,6.59882-3.06311,3.231-.30145,3.90393-1.52887,4.548-4.46228.89978-4.08936,3.83631-2.9527,6.57575-4.5943,5.76556-3.44684,1.76544-7.19507-.43067-11.50452-2.63708-5.17389,2.20355-11.93146-1.87787-16.412-2.8164,2.27448.17017,11.46973-3.65844,7.71863.90319,1.91046,3.31543,7.25977,3.44891,9.33118-2.2514-1.36939-4.85986-2.8551-5.616-5.60156-.15429,2.83972,1.23456,5.17376,2.00159,7.799.77276,2.63794-2.81555,10.56183-4.04169,4.91778-.28052,1.72852-1.24524,2.26544-2.827,2.63562-1.22315.28406-.69782,3.77594-1.06336,4.62232-.46118,1.06714-2.60827-.42292-3.13769.55438-.84418,1.55133,1.19641,2.72571-.16962,4.47852-.38837-5.29755-2.85419.72094-3.69543,2.1134a35.30477,35.30477,0,0,1-4.64936,6.64325c-3.01916,3.10205-4.6947,7.43-8.1933,10.10565-1.39294,1.063-2.91082.48816-4.2965,1.44238-1.58716,1.09-1.74775,3.10663-3.37647,3.97681-4.61945,2.48047-8.715,8.1629-10.64062,13.005" style="fill: none;stroke: #c7d7d9;stroke-linecap: round;stroke-linejoin: round;stroke-width: 0.5px"/>
  <path id="path3660" d="M55.09344,86.47824c-1.193,4.91974,2.81446,4.442,3.20282,7.27106.59321,4.33288.71027,9.882,2.72956,13.75769a30.22239,30.22239,0,0,1,3.40106,11.08722c.30151,2.48919,4.05377,8.09186,3.72375,2.48791,4.11719,1.72681,1.4126,9.77143,6.19721,11.405,7.05835,2.41168,1.76306-6.96765,2.03894-9.97107,1.7832.72827,16.38879,6.14051,10.49792,10.01587a65.07168,65.07168,0,0,0-6.313,5.06238c-3.28833,2.802-.2641,8.69806-.08533,12.45428,1.91327-.15545,2.70312-1.25958,1.92407-3.07189,4.031.21813,5.79486,2.52587,4.92542,6.473,1.48974-4.6062,4.26355-.40888,3.29333,1.92,2.31122-.29266,5.6405,1.25464,7.61408-.57489,1.683-1.56317,2.22815-4.02344,4.13287-5.35071.59216-.41083,4.05444-2.86963,4.8512-2.18182,2.72815,2.35986,6.43914,3.61932,8.93206,6.18219,3.29706,3.385,9.64576,8.07617,10.39679,12.93237.25006,1.627,3.00226,4.09064,3.75067,1.28278a8.65689,8.65689,0,0,0-1.08544-4.339c-.28284-.76184-3.44819-5.401-1.68647-4.76392-3.49695-2.38586-2.38055-7.1745-4.78137-10.27618,4.86542-.5824,9.17926,5.41552,11.38123,8.83069,2.98224,4.61975,8.34076,5.09075,10.82892,10.739.6513,1.48328-1.08631,4.24121,1.022,4.77924,2.28741.58221,4.16424,2.29583,6.239,3.39044,1.65607.87616,3.0362,3.27844,5.00427,2.33386,1.43158-.68445,3.59479-2.74677,5.33307-2.31317-.46209,2.73767-5.57232,3.77521-3.49328,7.061.3764.594,4.33191,6.75592,5.55517,3.83515,1.90168-4.5376.64569-20.58325-8.20135-14.94049-.893-1.93189.154-3.16077-.22724-5.02655-.484-2.36213-3.73931-5.86084-5.70288-7.09461-5.2088-3.27038,6.14319-5.84491,9.00855-4.14685-.38233-3.31818-5.67273-4.84631-8.35864-5.19427-4.57764-.59729-5.20221-4.51374-8.97657-5.33612-1.0736,3.08227,4.58673,7.844-.3565,9.41143-3.61835,1.147-4.34558-7.464-5.82233-10.194-3.00238-5.568-16.30041-10.94311-16.41864-.74658a30.87206,30.87206,0,0,0-1.67212-2.75616c-3.13122,2.68646,2.95831,4.67492,1.1535,6.57324-3.04834,3.21313-8.87146-1.52979-10.92047-3.7984-1.83654-2.0362-9.53051-16.384-3.42926-16.51447-5.3753-4.059-10.67279-15.35516-7.90789-21.61786,1.88531-4.2702-.15925-8.30273,1.55078-12.059,2.11169-4.65118,8.44458-4.72607,11.77563-8.08124q-.6232,1.88847-1.26483,3.77c2.81451-2.96643,2.09821-6.59961,3.487-10.18731,2.12079-5.46741,4.89178-11.31537,4.07013-17.35242-3.168,1.35419-1.58588-2.89319-2.54315-4.3631-2.65119-4.06177-5.88929-4.31219-7.40107-9.82062-1.5437-5.653-1.23974-9.97369,1.29023-15.13574,1.31384-2.67734-1.93573-10.27743-4.53876-6.396-1.03387,1.541-1.34,5.01388-3.99506,4.42712-1.60717-.357-5.03173-2.35049-6.53875-.57806a10.78058,10.78058,0,0,0-4.19349-4.40384c-3.30969-2.22916-7.60339-5.54905-11.67175-4.36921-1.75531.51011-3.60565-.50436-5.324-.72216-1.60352-.20725-.44989,2.16775-1.96558,2.11035-4.31049-.16333-1.68677,2.3204-1.86737,4.86615-.32825,4.55044-1.96607,10.1047-2.80109,14.70453-1.52319,8.36987,4.55036,16.04577,2.45911,24.93023-1.69409,7.204,1.09473,12.73273,1.81293,19.52631.89654,8.421-11.44062-3.23218-12.21112-6.83313-2.87958,1.309-2.72132,4.3725-1.82874,6.89032" style="fill: none;stroke: #c7d7d9;stroke-linecap: round;stroke-linejoin: round;stroke-width: 0.5px"/>
  <path id="path3662" d="M57.93652,82.101c.64991.69782,1.29969,1.39881,1.94654,2.09339.562-1.83631.31891-3.647-1.94654-2.09339" style="fill: none;stroke: #c7d7d9;stroke-linecap: round;stroke-linejoin: round;stroke-width: 0.5px"/>
  <path id="path3666" d="M68.60284,191.34067a12.71334,12.71334,0,0,0-2.17291-1.87757c-4.23559,7.32276,5.49805,8.96314,10.65509,9.15851a4.38057,4.38057,0,0,0-1.75305-3.99347c-2.49817-1.519-4.13379-.96069-6.72913-3.28747" style="fill: none;stroke: #c7d7d9;stroke-linecap: round;stroke-linejoin: round;stroke-width: 0.5px"/>
  <path id="path3668" d="M67.757,148.672c.79571,2.19629,2.97064,3.60949,4.7702,4.89319.21076-2.76594-2.21606-4.68732-4.7702-4.89319" style="fill: none;stroke: #c7d7d9;stroke-linecap: round;stroke-linejoin: round;stroke-width: 0.5px"/>
  <path id="path3670" d="M69.16583,200.3381q-1.4739.2808-2.94787.56153c.43017,2.79638,3.75152,3.15283,3.37793,6.18683,2.10174-1.75611.15069-4.87506-.43006-6.74836" style="fill: none;stroke: #c7d7d9;stroke-linecap: round;stroke-linejoin: round;stroke-width: 0.5px"/>
  <path id="path3672" d="M71.33588,237.6713c-.15357-3.92664-5.37958-.49054-5.43793,2.038,2.97314,1.3219,2.58081-2.55457,5.43793-2.038" style="fill: none;stroke: #c7d7d9;stroke-linecap: round;stroke-linejoin: round;stroke-width: 0.5px"/>
  <path id="path3676" d="M73.87109,159.22617c.43048,1.30664,5.25006,5.47235,6.39435,6.44757,4.86987,4.15515,3.44171,9.27484,6.93128,13.58337,1.53039,1.89063,11.60925,22.06354,14.45422,10.64258.60284-2.42066,2.175-4.4306,2.74048-6.85266.55853-2.40363-1.63477-4.64661-1.543-7.07105.2193-5.78875-2.5636-9.50024-6.331-13.55133-3.039-3.28479-19.493-6.96557-22.64643-3.19848" style="fill: none;stroke: #c7d7d9;stroke-linecap: round;stroke-linejoin: round;stroke-width: 0.5px"/>
  <path id="path3678" d="M81.69446.4205a6.80037,6.80037,0,0,0,4.12231,3.07343A2.73892,2.73892,0,0,0,81.69446.4205" style="fill: none;stroke: #c7d7d9;stroke-linecap: round;stroke-linejoin: round;stroke-width: 0.5px"/>
  <path id="path3684" d="M72.01178,386.02756c1.43042-.73749,9.71985-4.82428,9.37848-5.8501-1.24671-3.78418-3.73541-.369-5.68506.90979-2.39441,1.583-6.23126,1.50623-3.69342,4.94037" style="fill: none;stroke: #c7d7d9;stroke-linecap: round;stroke-linejoin: round;stroke-width: 0.5px"/>
  <path id="path3688" d="M95.24121,15.51987a4.17239,4.17239,0,0,0,1.7655-4.6456,4.90121,4.90121,0,0,0-1.7655,4.6456" style="fill: none;stroke: #c7d7d9;stroke-linecap: round;stroke-linejoin: round;stroke-width: 0.5px"/>
  <path id="path3692" d="M105.76288,365.5358c6.25958-2.82971-3.21991-6.16217-6.18469-5.72907-3.22516.47626-2.94336,4.55731-2.178,4.18115,2.12133-1.03851,7.52826-1.35418,8.36273,1.54792" style="fill: none;stroke: #c7d7d9;stroke-linecap: round;stroke-linejoin: round;stroke-width: 0.5px"/>
  <path id="path3694" d="M105.91034,118.9252c.62714,2.77893,1.86206,8.10852,4.81842,9.37995,1.44379-3.31135.9043-14.08136-4.81842-9.37995" style="fill: none;stroke: #c7d7d9;stroke-linecap: round;stroke-linejoin: round;stroke-width: 0.5px"/>
  <path id="path3696" d="M116.56268,146.25711c-.569-2.75177-4.12616-4.78149-6.5155-5.63562,1.44391,2.61041,4.14563,4.02179,6.5155,5.63562" style="fill: none;stroke: #c7d7d9;stroke-linecap: round;stroke-linejoin: round;stroke-width: 0.5px"/>
  <path id="path3698" d="M109.2746,161.01608c-.27454,5.02619,7.40686,9.09156,7.90637,1.91083.24762-3.65588-6.58313-5.90619-7.90637-1.91083" style="fill: none;stroke: #c7d7d9;stroke-linecap: round;stroke-linejoin: round;stroke-width: 0.5px"/>
  <path id="path3702" d="M113.38519,206.27682c7.22144,1.56385,5.26148,7.14649,4.91352,12.71222-.24945,4.03608.30456,6.93378-.93787,10.93531-1.28937,4.1712,1.00787,8.27874-.63428,12.3836,4.1369,1.04187,7.07215-6.01538,11.61914-5.84314,2.95972.11212,8.63819-3.99566,7.89069-6.97235-.65241-2.60534,8.83588-3.209,7.699-6.92981-1.51165-4.93493,2.21277-11.5166-5.81366-6.14508,1.99646-2.02191-.778-4.96942-3.091-4.546-2.14673.39246-3.63318,3.01959-5.38348,1.0116-1.98041-2.26917-3.3545-4.8302-6.13922-6.27277-2.61969-1.35528-6.048-2.01495-7.71247-4.72723a8.80542,8.80542,0,0,0-2.41046,4.39361" style="fill: none;stroke: #c7d7d9;stroke-linecap: round;stroke-linejoin: round;stroke-width: 0.5px"/>
  <path id="path3704" d="M115.90619,186.62485c-.46137,4.03424-2.25983,7.41009.70459,11.01935.72223-4.58539,1.26739-9.18683,2.39972-13.65381.638-2.52533-5.16516-1.13068-3.10431,2.63446" style="fill: none;stroke: #c7d7d9;stroke-linecap: round;stroke-linejoin: round;stroke-width: 0.5px"/>
  <path id="path3710" d="M119.25861,347.42465a3.87606,3.87606,0,0,0,5.43914,3.27912c2.6435-1.08423,2.56958-3.90455,4.28809-5.82788-2.3136.1087-3.637-1.73353-5.74347-2.23719-2.17432-.525-3.92285,2.111-5.92175,2.46851a13.69808,13.69808,0,0,0,1.93811,2.31744" style="fill: none;stroke: #c7d7d9;stroke-linecap: round;stroke-linejoin: round;stroke-width: 0.5px"/>
  <path id="path3714" d="M119.8783,331.06668c-1.3946,6.28967,7.19055,9.289,8.13086,1.91.34173-2.68609,1.79107-10.09265,3.8825-10.83624,1.6648-.58832,3.21631-10.36279,6.84467-7.333,2.61023,2.18085,1.33923,6.60828,3.3858,9.02338.74072-3.92084,2.08728-1.95,3.14337.11908.96973-2.3974.36255-5.7865,3.40961-6.82733a3.3625,3.3625,0,0,1-.65356,4.91211c3.08.22888,4.87451,4.1148,7.96453,3.66772-.88537-1.39239-1.97332-3.27875-1.83313-5.00628.07782-.98194,2.23652-.788,2.52655-1.69953.76722-2.39886-1.94323-1.93432,1.27057-4.16876,1.975-1.37134,3.77411,1.24,5.193,2.207,4.82794,3.28717,9.26159,4.31219,10.67212,10.92938.76135,3.59747-4.19214,6.751-4.716,10.54285-.5271,3.79492,1.32221,9.11346,1.98584,12.90362,1.02216,5.84516,5.9353,9.51575,10.79694,12.24317,2.23083,1.25329,10.11444,6.80981,12.6521,4.73669,2.03259-1.659,1.14514-5.79419,4.85388-5.46051.36658.03259-1.37763,17.27985,4.04822,13.83258,3.77154-2.39416,7.29455-10.98126,6.8858-15.24792-.57373-5.99957-5.0166-8.67377-7.1496-13.57923-1.28717-2.96289,6.407-18.9812,8.88221-17.6781,1.9038,1.00092,5.84625,10.38507,6.60778,12.66108.74512,2.21612.18561,4.47949.293,6.74633.15515,3.30957,2.74524,5.61121,3.10626,8.832.20014-5.20355,2.78382-11.86273-.9707-16.41821,1.96692-.82935,3.49793.385,4.18738,2.17828-3.215-3.08264,1.83014-5.85864,3.53558-8.01318,3.29926-4.16052,1.32959-10.49969.65961-15.10974-.54852-3.78577-5.47772-3.9881-3.3623-7.99707,1.22558-2.32227,1.54345-8.40967-2.77118-6.6532,7.4483-5.90765-5.67444-8.42126-5.38379-11.65161.16809-1.88861,3.8833-2.62988,4.67572-4.46057,1.42071-3.278-2.2323-4.75342-3.10865-7.37036-.41137-1.23419,1.15644-6.99683-1.14093-5.91822-2.90014,1.3581-3.38684.30182-4.84094-1.95678-1.72186-2.677.17438-4.1106-3.76318-5.4784-4.33747-1.50763-4.984-5.5028-8.75812-7.31945-2.51019,4.9696,1.31476,11.778,2.66193,16.61315.30407,1.10553,1.745,5.19312-.26551,5.69355-2.62078.64874-6.16327-.12439-7.1839-2.965-2.357,6.52124-.12078,7.13892-6.145,2.60346-5.66974-4.26654-1.21692,11.88464-6.06287,12.365-3.11285.309-3.575-3.4516-6.48077-2.27448-3.023,1.22876-2.4079,6.71259-3.441,9.21979-1.23932,3.01367-5.64441,1.48169-7.93183,3.20276-1.32818,1-3.64117,3.39642-5.41809,3.407-1.83307.0116,2.37994-2.76477,2.00012-2.52978,2.37708-1.45588,2.89514-2.29645,2.42157-5.26276-.36786-2.30164-3.08539-13.41589-7.09265-8.25372-.51251-1.85517-1.54785-4.22565-3.893-4.18982,1.0736,6.2149-6.54584,3.55755-8.484,6.8377-2.291,3.87146-.59864,7.57587-5.58368,9.01087-5.04175,1.45154-12.35108-.259-14.94623,5.96643-1.111,2.66943-.6012,5.83356-1.019,8.63519-.54248,3.707-2.61914,7.35285-4.27784,10.65918" style="fill: none;stroke: #c7d7d9;stroke-linecap: round;stroke-linejoin: round;stroke-width: 0.5px"/>
  <path id="path3716" d="M128.01282,187.08347a12.4371,12.4371,0,0,0-2.30872,1.70776,66.819,66.819,0,0,1,5.42377,4.91791,3.9824,3.9824,0,0,0-3.115-6.62567" style="fill: none;stroke: #c7d7d9;stroke-linecap: round;stroke-linejoin: round;stroke-width: 0.5px"/>
  <path id="path3718" d="M134.06177,270.11746c2.07684,1.61524,5.141,1.68762,6.83575,3.84632,1.43012,1.82135.5362,4.605,2.26544,6.26312,2.38178,2.28747,5.72712-.21,7.04224-2.345,2.44446-3.97473-1.66473-6.90113-2.61645-10.49024-1.76-6.60864,1.13781-16.13263,3.43-22.42261,1.74292-4.78979,7.131-11.10589.53686-14.9118a8.71677,8.71677,0,0,0-7.41687-.764c-4.09,1.66834-2.53912,5.23963-3.68261,8.52185-.7378,2.11634-2.86164,2.72779-2.18012,5.30622.75794,2.86493,1.86383,6.00482.61554,8.92779-1.87793,4.40448-10.0047,1.23548-10.07233,6.229-.05249,4.18377,3.04731,8.49627,5.24262,11.83953" style="fill: none;stroke: #c7d7d9;stroke-linecap: round;stroke-linejoin: round;stroke-width: 0.5px"/>
  <path id="path3720" d="M131.69366,243.77255c2.0387-.83282,7.00092-6.85028,2.7829-8.05414-3.18512-.90918-4.28515,6.32666-2.7829,8.05414" style="fill: none;stroke: #c7d7d9;stroke-linecap: round;stroke-linejoin: round;stroke-width: 0.5px"/>
  <path id="path3722" d="M147.4729,182.65933c-2.41894-4.268-5.17316-10.05414-9.85162-12.26654-2.4928,3.85132,8.17529,9.62244,9.85162,12.26654" style="fill: none;stroke: #c7d7d9;stroke-linecap: round;stroke-linejoin: round;stroke-width: 0.5px"/>
  <path id="path3724" d="M144.30969,201.165c-.1026.81891-.20837,1.63458-.31109,2.45355,3.23437-2.03735,5.915-10.43512,9.55639-5.85583,1.47553,1.85736,3.11164,3.5899,4.41071,5.58081,1.64673,2.52148,5.22406,2.78479,6.94159,5.33075,3.70447-6.54816-5.24811-10.95459-8.18146-14.72474a40.07075,40.07075,0,0,0-4.93744-4.92132c-.93518-.81775-6.17078-3.54682-7.32324-3.56555.74377,2.16937-.146,7.80182.74322,9.09466,2.19782,3.19373-.54693,3.24872-.89856,6.60767" style="fill: none;stroke: #c7d7d9;stroke-linecap: round;stroke-linejoin: round;stroke-width: 0.5px"/>
  <path id="path3726" d="M141.72906,328.52835c8.40857-2.954-6.50506-5.58221,0,0" style="fill: none;stroke: #c7d7d9;stroke-linecap: round;stroke-linejoin: round;stroke-width: 0.5px"/>
  <path id="path3728" d="M154.90265,188.10208a13.89031,13.89031,0,0,0,3.2,4.38489c-.33667-3.04224-1.03668-6.77759-3.94971-8.45258a3.21619,3.21619,0,0,0,.74976,4.06769" style="fill: none;stroke: #c7d7d9;stroke-linecap: round;stroke-linejoin: round;stroke-width: 0.5px"/>
  <path id="path3730" d="M152.81445,255.56839c.14612,4.69928-1.48382,9.22223-2.11352,13.833,6.35022,1.936,5.56738-13.353,8.268-16.274,3.34436-3.62274,6.85163-6.52869,7.60608-11.71747.89789-6.17761-.847-12.36181-.42566-18.54809-3.12707.52044-4.37268,10.20056-4.98816,12.54284-1.8742,7.1037-6.59961,13.03968-8.3468,20.16376" style="fill: none;stroke: #c7d7d9;stroke-linecap: round;stroke-linejoin: round;stroke-width: 0.5px"/>
  <path id="path3734" d="M157.927,280.222c3.876-.05262,2.37628-3.65625.89691-5.57612-2.22558.99408-3.69842,4.16718-.89691,5.57612" style="fill: none;stroke: #c7d7d9;stroke-linecap: round;stroke-linejoin: round;stroke-width: 0.5px"/>
  <path id="path3736" d="M165.58618,161.12955c5.77991-3.74243,5.28937-12.67792-2.16437-14.44385-2.37152,4.51666-1.14575,11.15808,2.16437,14.44385" style="fill: none;stroke: #c7d7d9;stroke-linecap: round;stroke-linejoin: round;stroke-width: 0.5px"/>
  <path id="path3740" d="M161.52875,268.24069q3.20077-.07983,2.32879-2.15582c-1.74066-.20618-2.34356.48779-2.32879,2.15582" style="fill: none;stroke: #c7d7d9;stroke-linecap: round;stroke-linejoin: round;stroke-width: 0.5px"/>
  <path id="path3742" d="M163.702,263.6105c-.83777,8.70441,15.10534-.62146,17.06909.19465-1.05908-4.54065-.88843-13.40748-9.02326-11.509-2.85516.6648-11.84228,8.68964-8.04583,11.31433" style="fill: none;stroke: #c7d7d9;stroke-linecap: round;stroke-linejoin: round;stroke-width: 0.5px"/>
  <path id="path3746" d="M169.468,188.65384c1.58715,4.8349,3.48065,8.98645,7.38757,12.39764,2.17834,1.89954,8.76575,9.42041,11.5885,8.29621-1.03015,2.18316-1.03589,5.13141-3.83929,5.91034a13.86172,13.86172,0,0,1,3.20843,4.16082c-2.2876-2.71716-3.80212.56971-5.79333,1.62879-3.08527,1.63782-7.63782-3.40607-8.85413-5.77094-2.34851,2.6756,1.4,16.11035,4.72223,17.6792-.36639-6.04162,6.41034,1.99445,6.45593,5.06922.11762,7.83673-1.53564,13.79876,6.607,17.866-.26532-2.37561-1.40064-4.57544-1.32422-7.00354,1.25494,1.50928,5.816,1.80359,6.34894-.66333.295-1.3695-2.81372-7.99811-3.5951-9.4209-1.78949-3.278-2.38739-2.87988-2.53607-7.18347-.097-2.78692.67542-7.13348-1.67493-9.264,1.8794-.41187,6.94782,4.91955,6.9997,4.86541,2.14532-2.33105,9.74432,1.02985,11.80109,2.35443-1.624-2.0531-2.69141-4.89233-5.38984-5.81427,3.62836-2.56475-3.13818-10.78741-3.33734-14.00512-.21441-3.38977,1.41809-6.33557-.32477-9.28144-1.11309-1.881,3.31714-1.17712-.17736-3.46313-1.89472-1.24054-4.40161-.47217-4.10523-3.52466.376-3.91907-3.02673-4.18512-5.81378-4.90777a10.63621,10.63621,0,0,0-7.2323.04077c-3.72638,1.037-7.64526-2.38715-11.1217.03369" style="fill: none;stroke: #c7d7d9;stroke-linecap: round;stroke-linejoin: round;stroke-width: 0.5px"/>
  <path id="path3748" d="M176.24982,216.96115c3.93683.72882,1.38867-8.60254-3.57935-5.97009.98114,2.07239,1.46613,4.65582,3.57935,5.97009" style="fill: none;stroke: #c7d7d9;stroke-linecap: round;stroke-linejoin: round;stroke-width: 0.5px"/>
  <path id="path3750" d="M173.57605,240.64664a31.59169,31.59169,0,0,0,3.90729-2.76923,2.97913,2.97913,0,0,1-4.28076.28662q.18667,1.24128.37347,2.48261" style="fill: none;stroke: #c7d7d9;stroke-linecap: round;stroke-linejoin: round;stroke-width: 0.5px"/>
  <path id="path3752" d="M186.13812,281.73947c1.14978-2.29712-.68573-6.00384-3.4433-3.72088a5.16485,5.16485,0,0,0,3.4433,3.72088" style="fill: none;stroke: #c7d7d9;stroke-linecap: round;stroke-linejoin: round;stroke-width: 0.5px"/>
  <path id="path3756" d="M195.14105,257.17172q1.22379,1.14039,2.40491,2.33515c-.377-2.143-1.2724-5.73932-4.30341-4.87549a16.84886,16.84886,0,0,0,1.8985,2.54034" style="fill: none;stroke: #c7d7d9;stroke-linecap: round;stroke-linejoin: round;stroke-width: 0.5px"/>
  <path id="path3758" d="M204.10431,257.51126a2.85424,2.85424,0,0,1,.28851,4.72339c3.3208.61822,2.73572-4.1756,2.41-6.02679-.34418-1.93915-1.50293-3.68482-1.75385-5.61731-.22943-1.76032,1.00031-3.12244.4046-4.92157-4.48773,1.71875-1.10064,5.60577-3.68377,8.38775,1.77545.35712,2.9198,1.57855,2.33447,3.45447" style="fill: none;stroke: #c7d7d9;stroke-linecap: round;stroke-linejoin: round;stroke-width: 0.5px"/>
  <path id="path3762" d="M211.48016,341.71756c.798-2.38831.21936-4.80389-.19207-7.18817-3.91358.63092-.69275,4.63013.19207,7.18817" style="fill: none;stroke: #c7d7d9;stroke-linecap: round;stroke-linejoin: round;stroke-width: 0.5px"/>
  <path id="path3764" d="M213.30243,269.75308c1.59766-1.5321.60449-3.69848-.9389-4.75116a6.24407,6.24407,0,0,0,.9389,4.75116" style="fill: none;stroke: #c7d7d9;stroke-linecap: round;stroke-linejoin: round;stroke-width: 0.5px"/>
  <path id="path3766" d="M215.09058,257.92746c-1.17438,1.464-2.3888,7.7699,1.21185,7.08966,3.654-.69061,1.18628-6.55-1.21185-7.08966" style="fill: none;stroke: #c7d7d9;stroke-linecap: round;stroke-linejoin: round;stroke-width: 0.5px"/>
  <path id="path3770" d="M92.658,30.23264q.43662,2.05019.96753,4.079a3.626,3.626,0,0,1-.96753-4.079" style="fill: none;stroke: #c7d7d9;stroke-linecap: round;stroke-linejoin: round;stroke-width: 0.5px"/>
  <g>
    <path id="path3656" d="M9.54346,299.06113a10.481,10.481,0,0,0-.56855-2.26868c.19257.75842.379,1.51349.56855,2.26868" style="fill: none;stroke: #c7d7d9;stroke-linecap: round;stroke-linejoin: round;stroke-width: 0.25px"/>
    <path id="path3664" d="M66.14691,215.03439q1.10577-3.52047-2.40771-1.43762c.80468.47931,1.60309.95831,2.40771,1.43762" style="fill: none;stroke: #c7d7d9;stroke-linecap: round;stroke-linejoin: round;stroke-width: 0.25px"/>
    <path id="path3674" d="M62.63257,396.668a7.69989,7.69989,0,0,0,.05377-7.17889,63.44192,63.44192,0,0,1-.05377,7.17889" style="fill: none;stroke: #c7d7d9;stroke-linecap: round;stroke-linejoin: round;stroke-width: 0.25px"/>
    <path id="path3680" d="M75.761,203.954a24.77348,24.77348,0,0,0-.50647-4.73163A3.83115,3.83115,0,0,0,75.761,203.954" style="fill: none;stroke: #c7d7d9;stroke-linecap: round;stroke-linejoin: round;stroke-width: 0.25px"/>
    <path id="path3682" d="M82.9422,14.38077c.82446-.04361,1.6427-.0874,2.46716-.13092-1.26068-.61811-1.836-1.06378-2.46716.13092" style="fill: none;stroke: #c7d7d9;stroke-linecap: round;stroke-linejoin: round;stroke-width: 0.25px"/>
    <path id="path3700" d="M116.608,126.96011q1.12647-3.20187-2.17291-1.87756c.72742.626,1.44873,1.2486,2.17291,1.87756" style="fill: none;stroke: #c7d7d9;stroke-linecap: round;stroke-linejoin: round;stroke-width: 0.25px"/>
    <path id="path3706" d="M118.37067,128.1489c.74975-.04639,1.49646-.0929,2.24933-.13923a4.16219,4.16219,0,0,0-2.24933.13923" style="fill: none;stroke: #c7d7d9;stroke-linecap: round;stroke-linejoin: round;stroke-width: 0.25px"/>
    <path id="path3708" d="M121.975,186.85477q2.89645.54913-.5998-2.26679c.20191.75879.40094,1.51123.5998,2.26679" style="fill: none;stroke: #c7d7d9;stroke-linecap: round;stroke-linejoin: round;stroke-width: 0.25px"/>
    <path id="path3732" d="M161.91937,169.06918q.64253-2.27581-2.20691-.9812c.73578.324,1.47126.65418,2.20691.9812" style="fill: none;stroke: #c7d7d9;stroke-linecap: round;stroke-linejoin: round;stroke-width: 0.25px"/>
    <path id="path3738" d="M166.571,170.59183a2.4314,2.4314,0,0,0-2.44158-.54438q1.21911.27522,2.44158.54438" style="fill: none;stroke: #c7d7d9;stroke-linecap: round;stroke-linejoin: round;stroke-width: 0.25px"/>
    <path id="path3744" d="M165.38513,249.5369c.61963-.72455,1.23914-1.446,1.85889-2.17365-2.08026-.04449-1.80634.53937-1.85889,2.17365" style="fill: none;stroke: #c7d7d9;stroke-linecap: round;stroke-linejoin: round;stroke-width: 0.25px"/>
    <path id="path3754" d="M186.342,187.49777c.5921.57721,1.04321.51636,1.34674-.17334-.451.05762-.89563.11255-1.34674.17334" style="fill: none;stroke: #c7d7d9;stroke-linecap: round;stroke-linejoin: round;stroke-width: 0.25px"/>
    <path id="path3772" d="M173.57605,240.64664c-.12445-.82752-.25208-1.65515-.37347-2.48261q3.79284.70468.37347,2.48261" style="fill: none;stroke: #c7d7d9;stroke-linecap: round;stroke-linejoin: round;stroke-width: 0.25px"/>
    <path id="path3774" d="M175.19159,239.137c.76392-.41986,1.52472-.83984,2.29175-1.25958a2.94909,2.94909,0,0,1-2.29175,1.25958" style="fill: none;stroke: #c7d7d9;stroke-linecap: round;stroke-linejoin: round;stroke-width: 0.25px"/>
  </g>
  <path id="path3776" d="M187.81317,219.41879a6.07773,6.07773,0,0,1,.35639,2.93384,4.94423,4.94423,0,0,1-.35639-2.93384" style="fill: none;stroke: #c7d7d9;stroke-linecap: round;stroke-linejoin: round;stroke-width: 0.5px"/>
  <path id="path3788" d="M155.85889,227.8577c-1.31464-8.82025,10.42535-3.8656,0,0" style="fill: none;stroke: #c7d7d9;stroke-linecap: round;stroke-linejoin: round;stroke-width: 0.5px"/>
</svg>
